<svg width="400" height="300" viewBox="0 0 400 300" xmlns="http://www.w3.org/2000/svg">
  <!-- High-End Gaming PC -->
  <rect width="400" height="300" fill="#0d0d0d"/>
  
  <!-- PC Case - Premium -->
  <rect x="80" y="40" width="240" height="220" fill="#1a1a1a" stroke="#666" stroke-width="3" rx="15"/>
  
  <!-- Tempered Glass Panel -->
  <rect x="90" y="50" width="220" height="200" fill="rgba(0,0,0,0.8)" stroke="#888" stroke-width="2" rx="10"/>
  
  <!-- Advanced RGB System -->
  <rect x="95" y="55" width="210" height="6" fill="url(#premiumRGB)" rx="3"/>
  <rect x="95" y="240" width="210" height="6" fill="url(#premiumRGB)" rx="3"/>
  <rect x="95" y="55" width="6" height="190" fill="url(#premiumRGB2)" rx="3"/>
  <rect x="299" y="55" width="6" height="190" fill="url(#premiumRGB2)" rx="3"/>
  
  <!-- Premium RGB Gradients -->
  <defs>
    <linearGradient id="premiumRGB" x1="0%" y1="0%" x2="100%" y2="0%">
      <stop offset="0%" style="stop-color:#ff0080;stop-opacity:1" />
      <stop offset="25%" style="stop-color:#0080ff;stop-opacity:1" />
      <stop offset="50%" style="stop-color:#80ff00;stop-opacity:1" />
      <stop offset="75%" style="stop-color:#ff8000;stop-opacity:1" />
      <stop offset="100%" style="stop-color:#8000ff;stop-opacity:1" />
    </linearGradient>
    <linearGradient id="premiumRGB2" x1="0%" y1="0%" x2="0%" y2="100%">
      <stop offset="0%" style="stop-color:#8000ff;stop-opacity:1" />
      <stop offset="33%" style="stop-color:#ff0080;stop-opacity:1" />
      <stop offset="66%" style="stop-color:#0080ff;stop-opacity:1" />
      <stop offset="100%" style="stop-color:#80ff00;stop-opacity:1" />
    </linearGradient>
  </defs>
  
  <!-- High-End Motherboard -->
  <rect x="110" y="70" width="180" height="120" fill="#0a3d0a" stroke="#0d6d0d" stroke-width="2" rx="6"/>
  
  <!-- Premium CPU Cooler (AIO) -->
  <circle cx="150" cy="110" r="25" fill="#222" stroke="#666" stroke-width="3"/>
  <circle cx="150" cy="110" r="20" fill="#444"/>
  <circle cx="150" cy="110" r="12" fill="#666"/>
  <circle cx="150" cy="110" r="6" fill="#888"/>
  <text x="150" y="115" text-anchor="middle" font-family="Arial, sans-serif" font-size="6" fill="#aaa">AIO</text>
  
  <!-- Radiator -->
  <rect x="250" y="80" width="30" height="60" fill="#333" stroke="#555" stroke-width="2" rx="3"/>
  <line x1="255" y1="85" x2="255" y2="135" stroke="#666" stroke-width="1"/>
  <line x1="260" y1="85" x2="260" y2="135" stroke="#666" stroke-width="1"/>
  <line x1="265" y1="85" x2="265" y2="135" stroke="#666" stroke-width="1"/>
  <line x1="270" y1="85" x2="270" y2="135" stroke="#666" stroke-width="1"/>
  <line x1="275" y1="85" x2="275" y2="135" stroke="#666" stroke-width="1"/>
  
  <!-- AIO Tubes -->
  <path d="M175 110 Q200 90 250 100" stroke="#333" stroke-width="4" fill="none"/>
  <path d="M175 120 Q200 140 250 130" stroke="#333" stroke-width="4" fill="none"/>
  
  <!-- High-End RAM (4 sticks) -->
  <rect x="190" y="75" width="10" height="50" fill="#1a1a1a" stroke="#444" stroke-width="1" rx="2"/>
  <rect x="205" y="75" width="10" height="50" fill="#1a1a1a" stroke="#444" stroke-width="1" rx="2"/>
  <rect x="220" y="75" width="10" height="50" fill="#1a1a1a" stroke="#444" stroke-width="1" rx="2"/>
  <rect x="235" y="75" width="10" height="50" fill="#1a1a1a" stroke="#444" stroke-width="1" rx="2"/>
  
  <!-- RAM RGB -->
  <rect x="190" y="78" width="10" height="6" fill="#ff0080"/>
  <rect x="205" y="78" width="10" height="6" fill="#0080ff"/>
  <rect x="220" y="78" width="10" height="6" fill="#80ff00"/>
  <rect x="235" y="78" width="10" height="6" fill="#ff8000"/>
  
  <!-- High-End Graphics Card -->
  <rect x="110" y="140" width="150" height="40" fill="#111" stroke="#555" stroke-width="2" rx="4"/>
  <rect x="115" y="145" width="140" height="30" fill="#222" rx="3"/>
  
  <!-- GPU Fans -->
  <circle cx="140" cy="160" r="12" fill="#333" stroke="#555" stroke-width="1"/>
  <circle cx="140" cy="160" r="8" fill="#666"/>
  <circle cx="180" cy="160" r="12" fill="#333" stroke="#555" stroke-width="1"/>
  <circle cx="180" cy="160" r="8" fill="#666"/>
  <circle cx="220" cy="160" r="12" fill="#333" stroke="#555" stroke-width="1"/>
  <circle cx="220" cy="160" r="8" fill="#666"/>
  
  <!-- GPU Backplate -->
  <rect x="115" y="147" width="140" height="8" fill="#444"/>
  <text x="185" y="153" text-anchor="middle" font-family="Arial, sans-serif" font-size="8" fill="#ccc" font-weight="bold">RTX 4080</text>
  
  <!-- Premium PSU -->
  <rect x="110" y="200" width="100" height="35" fill="#111" stroke="#444" stroke-width="2" rx="5"/>
  <circle cx="140" cy="217" r="10" fill="#222"/>
  <text x="140" y="220" text-anchor="middle" font-family="Arial, sans-serif" font-size="6" fill="#aaa">80+ GOLD</text>
  
  <!-- Front Panel Premium -->
  <rect x="85" y="45" width="15" height="210" fill="#333" stroke="#666" stroke-width="1" rx="3"/>
  
  <!-- RGB Power Button -->
  <circle cx="92" cy="70" r="8" fill="#111" stroke="#ff0080" stroke-width="3"/>
  <circle cx="92" cy="70" r="4" fill="#ff0080"/>
  
  <!-- Premium I/O -->
  <rect x="88" y="90" width="9" height="6" fill="#1a1a1a" rx="2"/>
  <rect x="88" y="100" width="9" height="6" fill="#1a1a1a" rx="2"/>
  <rect x="88" y="110" width="9" height="6" fill="#1a1a1a" rx="2"/>
  <circle cx="92" cy="125" r="3" fill="#333"/>
  
  <!-- Brand -->
  <text x="200" y="30" text-anchor="middle" font-family="Arial, sans-serif" font-size="14" fill="#888" font-weight="bold">ELITE GAMING</text>
  
  <!-- Premium Base -->
  <rect x="70" y="260" width="260" height="12" fill="#222" rx="6"/>
  
  <!-- Multiple Cables -->
  <path d="M320 160 Q350 180 370 210" stroke="#ff0080" stroke-width="3" fill="none"/>
  <path d="M320 170 Q350 190 370 220" stroke="#0080ff" stroke-width="3" fill="none"/>
  <path d="M320 180 Q350 200 370 230" stroke="#80ff00" stroke-width="3" fill="none"/>
</svg>