<svg width="400" height="300" viewBox="0 0 400 300" xmlns="http://www.w3.org/2000/svg">
  <defs>
    <linearGradient id="premiumGradient" x1="0%" y1="0%" x2="100%" y2="100%">
      <stop offset="0%" style="stop-color:#f39c12;stop-opacity:1" />
      <stop offset="100%" style="stop-color:#e67e22;stop-opacity:1" />
    </linearGradient>
    <radialGradient id="eliteGlow" cx="50%" cy="50%" r="50%">
      <stop offset="0%" style="stop-color:#ffffff;stop-opacity:0.4" />
      <stop offset="100%" style="stop-color:#f39c12;stop-opacity:1" />
    </radialGradient>
    <linearGradient id="oledGradient" x1="0%" y1="0%" x2="100%" y2="100%">
      <stop offset="0%" style="stop-color:#000000;stop-opacity:1" />
      <stop offset="100%" style="stop-color:#1a1a1a;stop-opacity:1" />
    </linearGradient>
  </defs>
  
  <!-- Background -->
  <rect width="400" height="300" fill="#000000"/>
  
  <!-- Elite Gaming Setup -->
  <rect x="10" y="190" width="380" height="90" fill="#0a0a0a" rx="15"/>
  
  <!-- Triple Monitor Setup -->
  <rect x="40" y="30" width="100" height="75" fill="url(#oledGradient)" rx="8"/>
  <rect x="45" y="35" width="90" height="55" fill="#000000" rx="3"/>
  <rect x="150" y="20" width="120" height="90" fill="url(#oledGradient)" rx="10"/>
  <rect x="155" y="25" width="110" height="70" fill="#000000" rx="4"/>
  <rect x="280" y="30" width="100" height="75" fill="url(#oledGradient)" rx="8"/>
  <rect x="285" y="35" width="90" height="55" fill="#000000" rx="3"/>
  
  <!-- Elite gaming content -->
  <rect x="50" y="40" width="80" height="45" fill="#2c1810" rx="2"/>
  <rect x="160" y="30" width="100" height="60" fill="#2c1810" rx="3"/>
  <rect x="290" y="40" width="80" height="45" fill="#2c1810" rx="2"/>
  
  <!-- Gaming UI elements -->
  <circle cx="210" cy="60" r="15" fill="#f39c12"/>
  <polygon points="200,60 220,50 220,70" fill="#000"/>
  <rect x="170" y="80" width="80" height="6" fill="#e67e22" rx="3"/>
  
  <!-- Monitor stands -->
  <rect x="85" y="105" width="10" height="15" fill="#2c3e50" rx="2"/>
  <rect x="205" y="110" width="10" height="20" fill="#2c3e50" rx="3"/>
  <rect x="325" y="105" width="10" height="15" fill="#2c3e50" rx="2"/>
  
  <!-- Premium PC Case -->
  <rect x="20" y="90" width="100" height="130" fill="url(#premiumGradient)" rx="15"/>
  
  <!-- Elite tempered glass with advanced RGB -->
  <rect x="30" y="100" width="80" height="110" fill="rgba(255,255,255,0.2)" rx="10"/>
  
  <!-- Custom liquid cooling loop -->
  <circle cx="70" cy="120" r="15" fill="rgba(52,152,219,0.7)"/>
  <circle cx="70" cy="120" r="12" fill="rgba(52,152,219,0.9)"/>
  <circle cx="70" cy="120" r="8" fill="#3498db"/>
  <rect x="65" y="135" width="10" height="20" fill="#3498db" rx="3"/>
  <rect x="85" y="125" width="15" height="8" fill="#3498db" rx="2"/>
  
  <!-- Premium RGB ecosystem -->
  <rect x="35" y="105" width="70" height="10" fill="url(#eliteGlow)" rx="5"/>
  <circle cx="45" cy="160" r="8" fill="#f39c12"/>
  <circle cx="60" cy="160" r="8" fill="#e74c3c"/>
  <circle cx="75" cy="160" r="8" fill="#9b59b6"/>
  <circle cx="90" cy="160" r="8" fill="#2ecc71"/>
  <circle cx="105" cy="160" r="8" fill="#3498db"/>
  
  <!-- Flagship components visible -->
  <rect x="40" y="180" width="60" height="18" fill="#e67e22" rx="4"/>
  <text x="70" y="191" text-anchor="middle" fill="#000" font-family="Arial, sans-serif" font-size="8" font-weight="bold">RTX 4090</text>
  <rect x="40" y="200" width="40" height="10" fill="#f39c12" rx="2"/>
  <text x="60" y="207" text-anchor="middle" fill="#000" font-family="Arial, sans-serif" font-size="6" font-weight="bold">i9-14900K</text>
  
  <!-- Elite peripherals -->
  <!-- Premium mechanical keyboard with OLED display -->
  <rect x="130" y="220" width="180" height="40" fill="#0a0a0a" rx="12"/>
  <rect x="135" y="225" width="170" height="30" fill="#1a1a1a" rx="10"/>
  <rect x="140" y="230" width="160" height="5" fill="#f39c12" rx="2"/>
  <rect x="140" y="238" width="160" height="5" fill="#e74c3c" rx="2"/>
  <rect x="140" y="246" width="160" height="5" fill="#9b59b6" rx="2"/>
  <!-- OLED display on keyboard -->
  <rect x="280" y="228" width="20" height="12" fill="#000000" rx="2"/>
  <rect x="282" y="230" width="16" height="8" fill="#f39c12" rx="1"/>
  
  <!-- Elite gaming mouse -->
  <ellipse cx="330" cy="210" rx="28" ry="20" fill="#0a0a0a"/>
  <ellipse cx="330" cy="210" rx="25" ry="17" fill="#1a1a1a"/>
  <ellipse cx="330" cy="207" rx="20" ry="14" fill="rgba(243,156,18,0.5)"/>
  <circle cx="330" cy="203" r="5" fill="#f39c12"/>
  <circle cx="322" cy="198" r="3" fill="#e74c3c"/>
  <circle cx="338" cy="198" r="3" fill="#2ecc71"/>
  <circle cx="330" cy="190" r="2" fill="#3498db"/>
  
  <!-- Professional headset with stand -->
  <rect x="350" y="130" width="12" height="70" fill="#1a1a1a" rx="6"/>
  <ellipse cx="356" cy="120" rx="35" ry="20" fill="#0a0a0a"/>
  <rect x="335" y="105" width="42" height="30" fill="#1a1a1a" rx="15"/>
  <circle cx="356" cy="120" r="15" fill="#f39c12"/>
  <rect x="346" y="110" width="20" height="20" fill="rgba(243,156,18,0.4)" rx="10"/>
  
  <!-- Premium Label -->
  <rect x="20" y="10" width="140" height="35" fill="#f39c12" rx="17"/>
  <text x="90" y="30" text-anchor="middle" fill="#000" font-family="Arial, sans-serif" font-size="14" font-weight="bold">PREMIUM</text>
  
  <!-- Elite performance specs -->
  <rect x="280" y="10" width="100" height="100" fill="#0a0a0a" rx="12"/>
  <text x="330" y="25" text-anchor="middle" fill="#f39c12" font-family="Arial, sans-serif" font-size="12" font-weight="bold">8K READY</text>
  <text x="330" y="40" text-anchor="middle" fill="#2ecc71" font-family="Arial, sans-serif" font-size="16" font-weight="bold">240+ FPS</text>
  <text x="330" y="53" text-anchor="middle" fill="#e67e22" font-family="Arial, sans-serif" font-size="9">Ultra+ Settings</text>
  <text x="330" y="65" text-anchor="middle" fill="#e74c3c" font-family="Arial, sans-serif" font-size="9">RTX + DLSS 3</text>
  <text x="330" y="77" text-anchor="middle" fill="#9b59b6" font-family="Arial, sans-serif" font-size="8">Full Ray Tracing</text>
  <text x="330" y="89" text-anchor="middle" fill="#3498db" font-family="Arial, sans-serif" font-size="8">VR + AR Ready</text>
  <text x="330" y="101" text-anchor="middle" fill="#f39c12" font-family="Arial, sans-serif" font-size="8">AI Accelerated</text>
  
  <!-- Premium cable management -->
  <path d="M 120 150 Q 130 160 140 170" stroke="#333" stroke-width="5" fill="none"/>
  <path d="M 120 170 Q 150 190 180 210" stroke="#222" stroke-width="4" fill="none"/>
  
  <!-- Elite ambient lighting -->
  <rect x="15" y="95" width="8" height="120" fill="url(#eliteGlow)" rx="4"/>
  <rect x="120" y="95" width="8" height="120" fill="url(#eliteGlow)" rx="4"/>
  <rect x="0" y="185" width="400" height="8" fill="rgba(243,156,18,0.3)" rx="4"/>
</svg>